<mxfile host="app.diagrams.net" modified="2022-04-20T08:06:41.704Z" agent="5.0 (Windows NT 10.0; Win64; x64) AppleWebKit/537.36 (KHTML, like Gecko) Chrome/100.0.4896.127 Safari/537.36 Edg/100.0.1185.44" etag="jBVpp3epaiwZ3nqLJWvK" version="17.4.2" type="github">
  <diagram id="Eaj9FaEKrz8-00YWPRSO" name="第 1 页">
    <mxGraphModel dx="782" dy="517" grid="1" gridSize="10" guides="1" tooltips="1" connect="1" arrows="1" fold="1" page="1" pageScale="1" pageWidth="827" pageHeight="1169" math="0" shadow="0">
      <root>
        <mxCell id="0" />
        <mxCell id="1" parent="0" />
        <mxCell id="Q9N7k_Dz75L2Y7I4RLh7-3" style="edgeStyle=orthogonalEdgeStyle;rounded=0;orthogonalLoop=1;jettySize=auto;html=1;exitX=0.5;exitY=0;exitDx=0;exitDy=0;exitPerimeter=0;entryX=0.5;entryY=1;entryDx=0;entryDy=0;entryPerimeter=0;" edge="1" parent="1" source="Q9N7k_Dz75L2Y7I4RLh7-1" target="Q9N7k_Dz75L2Y7I4RLh7-2">
          <mxGeometry relative="1" as="geometry" />
        </mxCell>
        <mxCell id="Q9N7k_Dz75L2Y7I4RLh7-1" value="用户" style="fontColor=#0066CC;verticalAlign=top;verticalLabelPosition=bottom;labelPosition=center;align=center;html=1;outlineConnect=0;fillColor=#CCCCCC;strokeColor=#6881B3;gradientColor=none;gradientDirection=north;strokeWidth=2;shape=mxgraph.networks.monitor;" vertex="1" parent="1">
          <mxGeometry x="150" y="250" width="80" height="65" as="geometry" />
        </mxCell>
        <mxCell id="Q9N7k_Dz75L2Y7I4RLh7-2" value="项目" style="html=1;outlineConnect=0;fillColor=#CCCCCC;strokeColor=#6881B3;gradientColor=none;gradientDirection=north;strokeWidth=2;shape=mxgraph.networks.cloud;fontColor=#ffffff;" vertex="1" parent="1">
          <mxGeometry x="145" y="130" width="90" height="50" as="geometry" />
        </mxCell>
      </root>
    </mxGraphModel>
  </diagram>
</mxfile>
